<svg width="207" height="71" viewBox="0 0 207 71" fill="none" xmlns="http://www.w3.org/2000/svg">
<path d="M57.4032 21.5707V14.0909H92.6439V21.5707H79.5072V57H70.5399V21.5707H57.4032ZM108.153 57.6286C104.899 57.6286 102.084 56.9371 99.7099 55.5543C97.3493 54.1576 95.5265 52.216 94.2415 49.7298C92.9565 47.2295 92.3139 44.3312 92.3139 41.0348C92.3139 37.7105 92.9565 34.8052 94.2415 32.3189C95.5265 29.8187 97.3493 27.8771 99.7099 26.4943C102.084 25.0975 104.899 24.3991 108.153 24.3991C111.408 24.3991 114.215 25.0975 116.576 26.4943C118.951 27.8771 120.78 29.8187 122.065 32.3189C123.35 34.8052 123.993 37.7105 123.993 41.0348C123.993 44.3312 123.35 47.2295 122.065 49.7298C120.78 52.216 118.951 54.1576 116.576 55.5543C114.215 56.9371 111.408 57.6286 108.153 57.6286ZM108.195 50.7145C109.676 50.7145 110.912 50.2955 111.904 49.4574C112.895 48.6054 113.643 47.446 114.146 45.9794C114.662 44.5128 114.921 42.8436 114.921 40.9719C114.921 39.1003 114.662 37.4311 114.146 35.9645C113.643 34.4979 112.895 33.3385 111.904 32.4865C110.912 31.6345 109.676 31.2085 108.195 31.2085C106.701 31.2085 105.444 31.6345 104.424 32.4865C103.418 33.3385 102.657 34.4979 102.14 35.9645C101.637 37.4311 101.386 39.1003 101.386 40.9719C101.386 42.8436 101.637 44.5128 102.14 45.9794C102.657 47.446 103.418 48.6054 104.424 49.4574C105.444 50.2955 106.701 50.7145 108.195 50.7145ZM145.175 57H129.964V14.0909H145.301C149.617 14.0909 153.332 14.9499 156.447 16.668C159.562 18.372 161.957 20.8234 163.634 24.022C165.324 27.2206 166.169 31.0478 166.169 35.5036C166.169 39.9732 165.324 43.8144 163.634 47.027C161.957 50.2396 159.548 52.7049 156.405 54.4229C153.276 56.141 149.533 57 145.175 57ZM139.036 49.2269H144.798C147.48 49.2269 149.736 48.752 151.565 47.8022C153.409 46.8384 154.792 45.3509 155.714 43.3395C156.65 41.3142 157.118 38.7022 157.118 35.5036C157.118 32.3329 156.65 29.7418 155.714 27.7305C154.792 25.7191 153.416 24.2385 151.586 23.2887C149.757 22.3389 147.501 21.864 144.819 21.864H139.036V49.2269ZM187.262 57.6286C184.007 57.6286 181.193 56.9371 178.818 55.5543C176.458 54.1576 174.635 52.216 173.35 49.7298C172.065 47.2295 171.422 44.3312 171.422 41.0348C171.422 37.7105 172.065 34.8052 173.35 32.3189C174.635 29.8187 176.458 27.8771 178.818 26.4943C181.193 25.0975 184.007 24.3991 187.262 24.3991C190.516 24.3991 193.324 25.0975 195.684 26.4943C198.059 27.8771 199.889 29.8187 201.174 32.3189C202.459 34.8052 203.101 37.7105 203.101 41.0348C203.101 44.3312 202.459 47.2295 201.174 49.7298C199.889 52.216 198.059 54.1576 195.684 55.5543C193.324 56.9371 190.516 57.6286 187.262 57.6286ZM187.304 50.7145C188.784 50.7145 190.02 50.2955 191.012 49.4574C192.004 48.6054 192.751 47.446 193.254 45.9794C193.771 44.5128 194.029 42.8436 194.029 40.9719C194.029 39.1003 193.771 37.4311 193.254 35.9645C192.751 34.4979 192.004 33.3385 191.012 32.4865C190.02 31.6345 188.784 31.2085 187.304 31.2085C185.809 31.2085 184.552 31.6345 183.532 32.4865C182.527 33.3385 181.765 34.4979 181.249 35.9645C180.746 37.4311 180.494 39.1003 180.494 40.9719C180.494 42.8436 180.746 44.5128 181.249 45.9794C181.765 47.446 182.527 48.6054 183.532 49.4574C184.552 50.2955 185.809 50.7145 187.304 50.7145Z" fill="#2A2952"/>
<path d="M1.896 13.948H22.986L46.308 39.501L20.978 64.05H0L25.777 39.501L1.896 13.948Z" fill="#2A2952"/>
</svg>
